<mxfile host="Electron" modified="2024-08-07T13:21:38.858Z" agent="Mozilla/5.0 (Windows NT 10.0; Win64; x64) AppleWebKit/537.36 (KHTML, like Gecko) draw.io/24.4.0 Chrome/120.0.6099.109 Electron/28.1.0 Safari/537.36" etag="Bcd9VLp4Ur-UOIYUWWmI" version="24.4.0" type="device">
  <diagram name="PÃ¡gina-1" id="1nf_K7HMR26yMDYRBvYB">
    <mxGraphModel dx="3413" dy="1493" grid="1" gridSize="10" guides="1" tooltips="1" connect="1" arrows="1" fold="1" page="1" pageScale="1" pageWidth="827" pageHeight="1169" math="0" shadow="0">
      <root>
        <mxCell id="0" />
        <mxCell id="1" parent="0" />
        <mxCell id="9cgPl-4a5b0BjAWY7l4s-1" value="ASSET" style="swimlane;fontStyle=0;childLayout=stackLayout;horizontal=1;startSize=26;fillColor=none;horizontalStack=0;resizeParent=1;resizeParentMax=0;resizeLast=0;collapsible=1;marginBottom=0;whiteSpace=wrap;html=1;" parent="1" vertex="1">
          <mxGeometry x="50" y="330" width="260" height="234" as="geometry" />
        </mxCell>
        <mxCell id="9cgPl-4a5b0BjAWY7l4s-2" value="- type: enum[herramienta, equipo,e tc.]" style="text;strokeColor=none;fillColor=none;align=left;verticalAlign=top;spacingLeft=4;spacingRight=4;overflow=hidden;rotatable=0;points=[[0,0.5],[1,0.5]];portConstraint=eastwest;whiteSpace=wrap;html=1;" parent="9cgPl-4a5b0BjAWY7l4s-1" vertex="1">
          <mxGeometry y="26" width="260" height="26" as="geometry" />
        </mxCell>
        <mxCell id="9cgPl-4a5b0BjAWY7l4s-3" value="- code: string" style="text;strokeColor=none;fillColor=none;align=left;verticalAlign=top;spacingLeft=4;spacingRight=4;overflow=hidden;rotatable=0;points=[[0,0.5],[1,0.5]];portConstraint=eastwest;whiteSpace=wrap;html=1;" parent="9cgPl-4a5b0BjAWY7l4s-1" vertex="1">
          <mxGeometry y="52" width="260" height="26" as="geometry" />
        </mxCell>
        <mxCell id="9cgPl-4a5b0BjAWY7l4s-4" value="- name: string" style="text;strokeColor=none;fillColor=none;align=left;verticalAlign=top;spacingLeft=4;spacingRight=4;overflow=hidden;rotatable=0;points=[[0,0.5],[1,0.5]];portConstraint=eastwest;whiteSpace=wrap;html=1;" parent="9cgPl-4a5b0BjAWY7l4s-1" vertex="1">
          <mxGeometry y="78" width="260" height="26" as="geometry" />
        </mxCell>
        <mxCell id="9cgPl-4a5b0BjAWY7l4s-9" value="- description: string" style="text;strokeColor=none;fillColor=none;align=left;verticalAlign=top;spacingLeft=4;spacingRight=4;overflow=hidden;rotatable=0;points=[[0,0.5],[1,0.5]];portConstraint=eastwest;whiteSpace=wrap;html=1;" parent="9cgPl-4a5b0BjAWY7l4s-1" vertex="1">
          <mxGeometry y="104" width="260" height="26" as="geometry" />
        </mxCell>
        <mxCell id="9cgPl-4a5b0BjAWY7l4s-11" value="- brand: string" style="text;strokeColor=none;fillColor=none;align=left;verticalAlign=top;spacingLeft=4;spacingRight=4;overflow=hidden;rotatable=0;points=[[0,0.5],[1,0.5]];portConstraint=eastwest;whiteSpace=wrap;html=1;" parent="9cgPl-4a5b0BjAWY7l4s-1" vertex="1">
          <mxGeometry y="130" width="260" height="26" as="geometry" />
        </mxCell>
        <mxCell id="9cgPl-4a5b0BjAWY7l4s-12" value="- model: string" style="text;strokeColor=none;fillColor=none;align=left;verticalAlign=top;spacingLeft=4;spacingRight=4;overflow=hidden;rotatable=0;points=[[0,0.5],[1,0.5]];portConstraint=eastwest;whiteSpace=wrap;html=1;" parent="9cgPl-4a5b0BjAWY7l4s-1" vertex="1">
          <mxGeometry y="156" width="260" height="26" as="geometry" />
        </mxCell>
        <mxCell id="9cgPl-4a5b0BjAWY7l4s-84" value="- location_lat: double" style="text;strokeColor=none;fillColor=none;align=left;verticalAlign=top;spacingLeft=4;spacingRight=4;overflow=hidden;rotatable=0;points=[[0,0.5],[1,0.5]];portConstraint=eastwest;whiteSpace=wrap;html=1;" parent="9cgPl-4a5b0BjAWY7l4s-1" vertex="1">
          <mxGeometry y="182" width="260" height="26" as="geometry" />
        </mxCell>
        <mxCell id="9cgPl-4a5b0BjAWY7l4s-85" value="- location_lng: double" style="text;strokeColor=none;fillColor=none;align=left;verticalAlign=top;spacingLeft=4;spacingRight=4;overflow=hidden;rotatable=0;points=[[0,0.5],[1,0.5]];portConstraint=eastwest;whiteSpace=wrap;html=1;" parent="9cgPl-4a5b0BjAWY7l4s-1" vertex="1">
          <mxGeometry y="208" width="260" height="26" as="geometry" />
        </mxCell>
        <mxCell id="9cgPl-4a5b0BjAWY7l4s-13" value="LIABILITY" style="swimlane;fontStyle=0;childLayout=stackLayout;horizontal=1;startSize=26;fillColor=none;horizontalStack=0;resizeParent=1;resizeParentMax=0;resizeLast=0;collapsible=1;marginBottom=0;whiteSpace=wrap;html=1;" parent="1" vertex="1">
          <mxGeometry x="65" y="656" width="230" height="156" as="geometry" />
        </mxCell>
        <mxCell id="9cgPl-4a5b0BjAWY7l4s-14" value="- created_at: timestamp" style="text;strokeColor=none;fillColor=none;align=left;verticalAlign=top;spacingLeft=4;spacingRight=4;overflow=hidden;rotatable=0;points=[[0,0.5],[1,0.5]];portConstraint=eastwest;whiteSpace=wrap;html=1;" parent="9cgPl-4a5b0BjAWY7l4s-13" vertex="1">
          <mxGeometry y="26" width="230" height="26" as="geometry" />
        </mxCell>
        <mxCell id="9cgPl-4a5b0BjAWY7l4s-15" value="- reason: string" style="text;strokeColor=none;fillColor=none;align=left;verticalAlign=top;spacingLeft=4;spacingRight=4;overflow=hidden;rotatable=0;points=[[0,0.5],[1,0.5]];portConstraint=eastwest;whiteSpace=wrap;html=1;" parent="9cgPl-4a5b0BjAWY7l4s-13" vertex="1">
          <mxGeometry y="52" width="230" height="26" as="geometry" />
        </mxCell>
        <mxCell id="9cgPl-4a5b0BjAWY7l4s-16" value="- comments: text" style="text;strokeColor=none;fillColor=none;align=left;verticalAlign=top;spacingLeft=4;spacingRight=4;overflow=hidden;rotatable=0;points=[[0,0.5],[1,0.5]];portConstraint=eastwest;whiteSpace=wrap;html=1;" parent="9cgPl-4a5b0BjAWY7l4s-13" vertex="1">
          <mxGeometry y="78" width="230" height="26" as="geometry" />
        </mxCell>
        <mxCell id="9cgPl-4a5b0BjAWY7l4s-17" value="- level: enum [team, operator, etc.]" style="text;strokeColor=none;fillColor=none;align=left;verticalAlign=top;spacingLeft=4;spacingRight=4;overflow=hidden;rotatable=0;points=[[0,0.5],[1,0.5]];portConstraint=eastwest;whiteSpace=wrap;html=1;" parent="9cgPl-4a5b0BjAWY7l4s-13" vertex="1">
          <mxGeometry y="104" width="230" height="26" as="geometry" />
        </mxCell>
        <mxCell id="9cgPl-4a5b0BjAWY7l4s-94" value="- status: enum [received, delivered, etc.]" style="text;strokeColor=none;fillColor=none;align=left;verticalAlign=top;spacingLeft=4;spacingRight=4;overflow=hidden;rotatable=0;points=[[0,0.5],[1,0.5]];portConstraint=eastwest;whiteSpace=wrap;html=1;" parent="9cgPl-4a5b0BjAWY7l4s-13" vertex="1">
          <mxGeometry y="130" width="230" height="26" as="geometry" />
        </mxCell>
        <mxCell id="9cgPl-4a5b0BjAWY7l4s-18" value="EMPLOYEE" style="swimlane;fontStyle=0;childLayout=stackLayout;horizontal=1;startSize=26;fillColor=none;horizontalStack=0;resizeParent=1;resizeParentMax=0;resizeLast=0;collapsible=1;marginBottom=0;whiteSpace=wrap;html=1;" parent="1" vertex="1">
          <mxGeometry x="485" y="620" width="270" height="208" as="geometry" />
        </mxCell>
        <mxCell id="9cgPl-4a5b0BjAWY7l4s-19" value="- type: enum [operator, engineer, chief, etc.]" style="text;strokeColor=none;fillColor=none;align=left;verticalAlign=top;spacingLeft=4;spacingRight=4;overflow=hidden;rotatable=0;points=[[0,0.5],[1,0.5]];portConstraint=eastwest;whiteSpace=wrap;html=1;" parent="9cgPl-4a5b0BjAWY7l4s-18" vertex="1">
          <mxGeometry y="26" width="270" height="26" as="geometry" />
        </mxCell>
        <mxCell id="9cgPl-4a5b0BjAWY7l4s-20" value="- name: string" style="text;strokeColor=none;fillColor=none;align=left;verticalAlign=top;spacingLeft=4;spacingRight=4;overflow=hidden;rotatable=0;points=[[0,0.5],[1,0.5]];portConstraint=eastwest;whiteSpace=wrap;html=1;" parent="9cgPl-4a5b0BjAWY7l4s-18" vertex="1">
          <mxGeometry y="52" width="270" height="26" as="geometry" />
        </mxCell>
        <mxCell id="9cgPl-4a5b0BjAWY7l4s-21" value="- lastname: string" style="text;strokeColor=none;fillColor=none;align=left;verticalAlign=top;spacingLeft=4;spacingRight=4;overflow=hidden;rotatable=0;points=[[0,0.5],[1,0.5]];portConstraint=eastwest;whiteSpace=wrap;html=1;" parent="9cgPl-4a5b0BjAWY7l4s-18" vertex="1">
          <mxGeometry y="78" width="270" height="26" as="geometry" />
        </mxCell>
        <mxCell id="9cgPl-4a5b0BjAWY7l4s-22" value="- hired_on: timestamp" style="text;strokeColor=none;fillColor=none;align=left;verticalAlign=top;spacingLeft=4;spacingRight=4;overflow=hidden;rotatable=0;points=[[0,0.5],[1,0.5]];portConstraint=eastwest;whiteSpace=wrap;html=1;" parent="9cgPl-4a5b0BjAWY7l4s-18" vertex="1">
          <mxGeometry y="104" width="270" height="26" as="geometry" />
        </mxCell>
        <mxCell id="9cgPl-4a5b0BjAWY7l4s-23" value="- file_number (legajo): string" style="text;strokeColor=none;fillColor=none;align=left;verticalAlign=top;spacingLeft=4;spacingRight=4;overflow=hidden;rotatable=0;points=[[0,0.5],[1,0.5]];portConstraint=eastwest;whiteSpace=wrap;html=1;" parent="9cgPl-4a5b0BjAWY7l4s-18" vertex="1">
          <mxGeometry y="130" width="270" height="26" as="geometry" />
        </mxCell>
        <mxCell id="9cgPl-4a5b0BjAWY7l4s-24" value="- comments: string" style="text;strokeColor=none;fillColor=none;align=left;verticalAlign=top;spacingLeft=4;spacingRight=4;overflow=hidden;rotatable=0;points=[[0,0.5],[1,0.5]];portConstraint=eastwest;whiteSpace=wrap;html=1;" parent="9cgPl-4a5b0BjAWY7l4s-18" vertex="1">
          <mxGeometry y="156" width="270" height="26" as="geometry" />
        </mxCell>
        <mxCell id="9cgPl-4a5b0BjAWY7l4s-25" value="- profile_pic: string" style="text;strokeColor=none;fillColor=none;align=left;verticalAlign=top;spacingLeft=4;spacingRight=4;overflow=hidden;rotatable=0;points=[[0,0.5],[1,0.5]];portConstraint=eastwest;whiteSpace=wrap;html=1;" parent="9cgPl-4a5b0BjAWY7l4s-18" vertex="1">
          <mxGeometry y="182" width="270" height="26" as="geometry" />
        </mxCell>
        <mxCell id="9cgPl-4a5b0BjAWY7l4s-26" value="USER" style="swimlane;fontStyle=0;childLayout=stackLayout;horizontal=1;startSize=26;fillColor=none;horizontalStack=0;resizeParent=1;resizeParentMax=0;resizeLast=0;collapsible=1;marginBottom=0;whiteSpace=wrap;html=1;" parent="1" vertex="1">
          <mxGeometry x="550" y="380" width="140" height="104" as="geometry" />
        </mxCell>
        <mxCell id="9cgPl-4a5b0BjAWY7l4s-27" value="- name: string" style="text;strokeColor=none;fillColor=none;align=left;verticalAlign=top;spacingLeft=4;spacingRight=4;overflow=hidden;rotatable=0;points=[[0,0.5],[1,0.5]];portConstraint=eastwest;whiteSpace=wrap;html=1;" parent="9cgPl-4a5b0BjAWY7l4s-26" vertex="1">
          <mxGeometry y="26" width="140" height="26" as="geometry" />
        </mxCell>
        <mxCell id="9cgPl-4a5b0BjAWY7l4s-28" value="- email: string" style="text;strokeColor=none;fillColor=none;align=left;verticalAlign=top;spacingLeft=4;spacingRight=4;overflow=hidden;rotatable=0;points=[[0,0.5],[1,0.5]];portConstraint=eastwest;whiteSpace=wrap;html=1;" parent="9cgPl-4a5b0BjAWY7l4s-26" vertex="1">
          <mxGeometry y="52" width="140" height="26" as="geometry" />
        </mxCell>
        <mxCell id="9cgPl-4a5b0BjAWY7l4s-29" value="- password: string" style="text;strokeColor=none;fillColor=none;align=left;verticalAlign=top;spacingLeft=4;spacingRight=4;overflow=hidden;rotatable=0;points=[[0,0.5],[1,0.5]];portConstraint=eastwest;whiteSpace=wrap;html=1;" parent="9cgPl-4a5b0BjAWY7l4s-26" vertex="1">
          <mxGeometry y="78" width="140" height="26" as="geometry" />
        </mxCell>
        <mxCell id="9cgPl-4a5b0BjAWY7l4s-30" value="ROLE" style="swimlane;fontStyle=0;childLayout=stackLayout;horizontal=1;startSize=26;fillColor=none;horizontalStack=0;resizeParent=1;resizeParentMax=0;resizeLast=0;collapsible=1;marginBottom=0;whiteSpace=wrap;html=1;" parent="1" vertex="1">
          <mxGeometry x="550" y="190" width="140" height="78" as="geometry" />
        </mxCell>
        <mxCell id="9cgPl-4a5b0BjAWY7l4s-31" value="- name: string" style="text;strokeColor=none;fillColor=none;align=left;verticalAlign=top;spacingLeft=4;spacingRight=4;overflow=hidden;rotatable=0;points=[[0,0.5],[1,0.5]];portConstraint=eastwest;whiteSpace=wrap;html=1;" parent="9cgPl-4a5b0BjAWY7l4s-30" vertex="1">
          <mxGeometry y="26" width="140" height="26" as="geometry" />
        </mxCell>
        <mxCell id="9cgPl-4a5b0BjAWY7l4s-32" value="- description: string" style="text;strokeColor=none;fillColor=none;align=left;verticalAlign=top;spacingLeft=4;spacingRight=4;overflow=hidden;rotatable=0;points=[[0,0.5],[1,0.5]];portConstraint=eastwest;whiteSpace=wrap;html=1;" parent="9cgPl-4a5b0BjAWY7l4s-30" vertex="1">
          <mxGeometry y="52" width="140" height="26" as="geometry" />
        </mxCell>
        <mxCell id="9cgPl-4a5b0BjAWY7l4s-36" value="" style="endArrow=diamondThin;endFill=0;endSize=24;html=1;rounded=0;" parent="1" source="9cgPl-4a5b0BjAWY7l4s-26" target="9cgPl-4a5b0BjAWY7l4s-30" edge="1">
          <mxGeometry width="160" relative="1" as="geometry">
            <mxPoint x="570" y="310" as="sourcePoint" />
            <mxPoint x="730" y="310" as="targetPoint" />
          </mxGeometry>
        </mxCell>
        <mxCell id="9cgPl-4a5b0BjAWY7l4s-37" value="1..n" style="edgeLabel;html=1;align=center;verticalAlign=middle;resizable=0;points=[];" parent="9cgPl-4a5b0BjAWY7l4s-36" vertex="1" connectable="0">
          <mxGeometry x="-0.8" y="-1" relative="1" as="geometry">
            <mxPoint as="offset" />
          </mxGeometry>
        </mxCell>
        <mxCell id="9cgPl-4a5b0BjAWY7l4s-38" value="1..n" style="edgeLabel;html=1;align=center;verticalAlign=middle;resizable=0;points=[];" parent="9cgPl-4a5b0BjAWY7l4s-36" vertex="1" connectable="0">
          <mxGeometry x="0.3964" relative="1" as="geometry">
            <mxPoint as="offset" />
          </mxGeometry>
        </mxCell>
        <mxCell id="9cgPl-4a5b0BjAWY7l4s-39" value="many-to-many" style="edgeLabel;html=1;align=center;verticalAlign=middle;resizable=0;points=[];" parent="9cgPl-4a5b0BjAWY7l4s-36" vertex="1" connectable="0">
          <mxGeometry x="-0.1988" relative="1" as="geometry">
            <mxPoint as="offset" />
          </mxGeometry>
        </mxCell>
        <mxCell id="9cgPl-4a5b0BjAWY7l4s-40" value="" style="endArrow=diamondThin;endFill=1;endSize=24;html=1;rounded=0;" parent="1" source="9cgPl-4a5b0BjAWY7l4s-18" target="9cgPl-4a5b0BjAWY7l4s-26" edge="1">
          <mxGeometry width="160" relative="1" as="geometry">
            <mxPoint x="460" y="590" as="sourcePoint" />
            <mxPoint x="620" y="590" as="targetPoint" />
          </mxGeometry>
        </mxCell>
        <mxCell id="9cgPl-4a5b0BjAWY7l4s-41" value="1" style="edgeLabel;html=1;align=center;verticalAlign=middle;resizable=0;points=[];" parent="9cgPl-4a5b0BjAWY7l4s-40" vertex="1" connectable="0">
          <mxGeometry x="0.5728" y="1" relative="1" as="geometry">
            <mxPoint as="offset" />
          </mxGeometry>
        </mxCell>
        <mxCell id="9cgPl-4a5b0BjAWY7l4s-42" value="1" style="edgeLabel;html=1;align=center;verticalAlign=middle;resizable=0;points=[];" parent="9cgPl-4a5b0BjAWY7l4s-40" vertex="1" connectable="0">
          <mxGeometry x="-0.8231" y="1" relative="1" as="geometry">
            <mxPoint as="offset" />
          </mxGeometry>
        </mxCell>
        <mxCell id="9cgPl-4a5b0BjAWY7l4s-44" value="" style="endArrow=diamondThin;endFill=0;endSize=24;html=1;rounded=0;" parent="1" source="9cgPl-4a5b0BjAWY7l4s-13" target="9cgPl-4a5b0BjAWY7l4s-18" edge="1">
          <mxGeometry width="160" relative="1" as="geometry">
            <mxPoint x="300" y="570" as="sourcePoint" />
            <mxPoint x="460" y="570" as="targetPoint" />
          </mxGeometry>
        </mxCell>
        <mxCell id="9cgPl-4a5b0BjAWY7l4s-45" value="1..n" style="edgeLabel;html=1;align=center;verticalAlign=middle;resizable=0;points=[];" parent="9cgPl-4a5b0BjAWY7l4s-44" vertex="1" connectable="0">
          <mxGeometry x="-0.8691" relative="1" as="geometry">
            <mxPoint as="offset" />
          </mxGeometry>
        </mxCell>
        <mxCell id="9cgPl-4a5b0BjAWY7l4s-46" value="0..n" style="edgeLabel;html=1;align=center;verticalAlign=middle;resizable=0;points=[];" parent="9cgPl-4a5b0BjAWY7l4s-44" vertex="1" connectable="0">
          <mxGeometry x="0.6106" relative="1" as="geometry">
            <mxPoint as="offset" />
          </mxGeometry>
        </mxCell>
        <mxCell id="9cgPl-4a5b0BjAWY7l4s-47" value="many-to-many" style="edgeLabel;html=1;align=center;verticalAlign=middle;resizable=0;points=[];" parent="9cgPl-4a5b0BjAWY7l4s-44" vertex="1" connectable="0">
          <mxGeometry x="-0.2006" relative="1" as="geometry">
            <mxPoint as="offset" />
          </mxGeometry>
        </mxCell>
        <mxCell id="9cgPl-4a5b0BjAWY7l4s-48" value="" style="endArrow=diamondThin;endFill=1;endSize=24;html=1;rounded=0;" parent="1" source="9cgPl-4a5b0BjAWY7l4s-13" target="9cgPl-4a5b0BjAWY7l4s-1" edge="1">
          <mxGeometry width="160" relative="1" as="geometry">
            <mxPoint x="125" y="596" as="sourcePoint" />
            <mxPoint x="285" y="596" as="targetPoint" />
          </mxGeometry>
        </mxCell>
        <mxCell id="9cgPl-4a5b0BjAWY7l4s-49" value="1" style="edgeLabel;html=1;align=center;verticalAlign=middle;resizable=0;points=[];" parent="9cgPl-4a5b0BjAWY7l4s-48" vertex="1" connectable="0">
          <mxGeometry x="0.2119" relative="1" as="geometry">
            <mxPoint as="offset" />
          </mxGeometry>
        </mxCell>
        <mxCell id="9cgPl-4a5b0BjAWY7l4s-50" value="1" style="edgeLabel;html=1;align=center;verticalAlign=middle;resizable=0;points=[];" parent="9cgPl-4a5b0BjAWY7l4s-48" vertex="1" connectable="0">
          <mxGeometry x="-0.7437" relative="1" as="geometry">
            <mxPoint as="offset" />
          </mxGeometry>
        </mxCell>
        <mxCell id="9cgPl-4a5b0BjAWY7l4s-51" value="TEAM" style="swimlane;fontStyle=0;childLayout=stackLayout;horizontal=1;startSize=26;fillColor=none;horizontalStack=0;resizeParent=1;resizeParentMax=0;resizeLast=0;collapsible=1;marginBottom=0;whiteSpace=wrap;html=1;" parent="1" vertex="1">
          <mxGeometry x="110" y="930" width="140" height="104" as="geometry" />
        </mxCell>
        <mxCell id="9cgPl-4a5b0BjAWY7l4s-52" value="- name: string" style="text;strokeColor=none;fillColor=none;align=left;verticalAlign=top;spacingLeft=4;spacingRight=4;overflow=hidden;rotatable=0;points=[[0,0.5],[1,0.5]];portConstraint=eastwest;whiteSpace=wrap;html=1;" parent="9cgPl-4a5b0BjAWY7l4s-51" vertex="1">
          <mxGeometry y="26" width="140" height="26" as="geometry" />
        </mxCell>
        <mxCell id="9cgPl-4a5b0BjAWY7l4s-53" value="- description: string" style="text;strokeColor=none;fillColor=none;align=left;verticalAlign=top;spacingLeft=4;spacingRight=4;overflow=hidden;rotatable=0;points=[[0,0.5],[1,0.5]];portConstraint=eastwest;whiteSpace=wrap;html=1;" parent="9cgPl-4a5b0BjAWY7l4s-51" vertex="1">
          <mxGeometry y="52" width="140" height="26" as="geometry" />
        </mxCell>
        <mxCell id="9cgPl-4a5b0BjAWY7l4s-54" value="- active: boolean" style="text;strokeColor=none;fillColor=none;align=left;verticalAlign=top;spacingLeft=4;spacingRight=4;overflow=hidden;rotatable=0;points=[[0,0.5],[1,0.5]];portConstraint=eastwest;whiteSpace=wrap;html=1;" parent="9cgPl-4a5b0BjAWY7l4s-51" vertex="1">
          <mxGeometry y="78" width="140" height="26" as="geometry" />
        </mxCell>
        <mxCell id="9cgPl-4a5b0BjAWY7l4s-57" value="" style="endArrow=diamondThin;endFill=0;endSize=24;html=1;rounded=0;" parent="1" source="9cgPl-4a5b0BjAWY7l4s-51" target="9cgPl-4a5b0BjAWY7l4s-18" edge="1">
          <mxGeometry width="160" relative="1" as="geometry">
            <mxPoint x="340" y="850" as="sourcePoint" />
            <mxPoint x="500" y="850" as="targetPoint" />
          </mxGeometry>
        </mxCell>
        <mxCell id="9cgPl-4a5b0BjAWY7l4s-58" value="0..n" style="edgeLabel;html=1;align=center;verticalAlign=middle;resizable=0;points=[];" parent="9cgPl-4a5b0BjAWY7l4s-57" vertex="1" connectable="0">
          <mxGeometry x="-0.8142" relative="1" as="geometry">
            <mxPoint as="offset" />
          </mxGeometry>
        </mxCell>
        <mxCell id="9cgPl-4a5b0BjAWY7l4s-59" value="0..n" style="edgeLabel;html=1;align=center;verticalAlign=middle;resizable=0;points=[];" parent="9cgPl-4a5b0BjAWY7l4s-57" vertex="1" connectable="0">
          <mxGeometry x="0.5076" y="1" relative="1" as="geometry">
            <mxPoint as="offset" />
          </mxGeometry>
        </mxCell>
        <mxCell id="9cgPl-4a5b0BjAWY7l4s-60" value="many-to-many" style="edgeLabel;html=1;align=center;verticalAlign=middle;resizable=0;points=[];" parent="9cgPl-4a5b0BjAWY7l4s-57" vertex="1" connectable="0">
          <mxGeometry x="-0.1206" y="1" relative="1" as="geometry">
            <mxPoint as="offset" />
          </mxGeometry>
        </mxCell>
        <mxCell id="9cgPl-4a5b0BjAWY7l4s-61" value="" style="endArrow=diamondThin;endFill=0;endSize=24;html=1;rounded=0;" parent="1" source="9cgPl-4a5b0BjAWY7l4s-13" target="9cgPl-4a5b0BjAWY7l4s-51" edge="1">
          <mxGeometry width="160" relative="1" as="geometry">
            <mxPoint x="110" y="850" as="sourcePoint" />
            <mxPoint x="270" y="850" as="targetPoint" />
          </mxGeometry>
        </mxCell>
        <mxCell id="9cgPl-4a5b0BjAWY7l4s-62" value="0..n" style="edgeLabel;html=1;align=center;verticalAlign=middle;resizable=0;points=[];" parent="9cgPl-4a5b0BjAWY7l4s-61" vertex="1" connectable="0">
          <mxGeometry x="-0.8127" y="1" relative="1" as="geometry">
            <mxPoint as="offset" />
          </mxGeometry>
        </mxCell>
        <mxCell id="9cgPl-4a5b0BjAWY7l4s-63" value="0..n" style="edgeLabel;html=1;align=center;verticalAlign=middle;resizable=0;points=[];" parent="9cgPl-4a5b0BjAWY7l4s-61" vertex="1" connectable="0">
          <mxGeometry x="0.4367" y="-1" relative="1" as="geometry">
            <mxPoint as="offset" />
          </mxGeometry>
        </mxCell>
        <mxCell id="9cgPl-4a5b0BjAWY7l4s-64" value="many-to-many" style="edgeLabel;html=1;align=center;verticalAlign=middle;resizable=0;points=[];" parent="9cgPl-4a5b0BjAWY7l4s-61" vertex="1" connectable="0">
          <mxGeometry x="-0.2389" relative="1" as="geometry">
            <mxPoint as="offset" />
          </mxGeometry>
        </mxCell>
        <mxCell id="9cgPl-4a5b0BjAWY7l4s-65" value="Tal vez la responsabilidad sobre una herramienta sea en realidad el nombre de la relaciÃ³n muchos a muchos entre una herramienta y un equipo o empleado" style="text;html=1;align=center;verticalAlign=middle;whiteSpace=wrap;rounded=0;" parent="1" vertex="1">
          <mxGeometry x="-220" y="810" width="220" height="30" as="geometry" />
        </mxCell>
        <mxCell id="9cgPl-4a5b0BjAWY7l4s-66" value="PROJECT" style="swimlane;fontStyle=0;childLayout=stackLayout;horizontal=1;startSize=26;fillColor=none;horizontalStack=0;resizeParent=1;resizeParentMax=0;resizeLast=0;collapsible=1;marginBottom=0;whiteSpace=wrap;html=1;" parent="1" vertex="1">
          <mxGeometry x="-310" y="400" width="140" height="104" as="geometry" />
        </mxCell>
        <mxCell id="9cgPl-4a5b0BjAWY7l4s-67" value="- type: string" style="text;strokeColor=none;fillColor=none;align=left;verticalAlign=top;spacingLeft=4;spacingRight=4;overflow=hidden;rotatable=0;points=[[0,0.5],[1,0.5]];portConstraint=eastwest;whiteSpace=wrap;html=1;" parent="9cgPl-4a5b0BjAWY7l4s-66" vertex="1">
          <mxGeometry y="26" width="140" height="26" as="geometry" />
        </mxCell>
        <mxCell id="9cgPl-4a5b0BjAWY7l4s-68" value="- name: string" style="text;strokeColor=none;fillColor=none;align=left;verticalAlign=top;spacingLeft=4;spacingRight=4;overflow=hidden;rotatable=0;points=[[0,0.5],[1,0.5]];portConstraint=eastwest;whiteSpace=wrap;html=1;" parent="9cgPl-4a5b0BjAWY7l4s-66" vertex="1">
          <mxGeometry y="52" width="140" height="26" as="geometry" />
        </mxCell>
        <mxCell id="9cgPl-4a5b0BjAWY7l4s-69" value="- description: string" style="text;strokeColor=none;fillColor=none;align=left;verticalAlign=top;spacingLeft=4;spacingRight=4;overflow=hidden;rotatable=0;points=[[0,0.5],[1,0.5]];portConstraint=eastwest;whiteSpace=wrap;html=1;" parent="9cgPl-4a5b0BjAWY7l4s-66" vertex="1">
          <mxGeometry y="78" width="140" height="26" as="geometry" />
        </mxCell>
        <mxCell id="9cgPl-4a5b0BjAWY7l4s-71" value="DEPOSIT" style="swimlane;fontStyle=0;childLayout=stackLayout;horizontal=1;startSize=26;fillColor=none;horizontalStack=0;resizeParent=1;resizeParentMax=0;resizeLast=0;collapsible=1;marginBottom=0;whiteSpace=wrap;html=1;" parent="1" vertex="1">
          <mxGeometry x="110" y="170" width="140" height="78" as="geometry" />
        </mxCell>
        <mxCell id="9cgPl-4a5b0BjAWY7l4s-72" value="- name: string" style="text;strokeColor=none;fillColor=none;align=left;verticalAlign=top;spacingLeft=4;spacingRight=4;overflow=hidden;rotatable=0;points=[[0,0.5],[1,0.5]];portConstraint=eastwest;whiteSpace=wrap;html=1;" parent="9cgPl-4a5b0BjAWY7l4s-71" vertex="1">
          <mxGeometry y="26" width="140" height="26" as="geometry" />
        </mxCell>
        <mxCell id="9cgPl-4a5b0BjAWY7l4s-74" value="- description: string" style="text;strokeColor=none;fillColor=none;align=left;verticalAlign=top;spacingLeft=4;spacingRight=4;overflow=hidden;rotatable=0;points=[[0,0.5],[1,0.5]];portConstraint=eastwest;whiteSpace=wrap;html=1;" parent="9cgPl-4a5b0BjAWY7l4s-71" vertex="1">
          <mxGeometry y="52" width="140" height="26" as="geometry" />
        </mxCell>
        <mxCell id="9cgPl-4a5b0BjAWY7l4s-75" value="PLACE" style="swimlane;fontStyle=0;childLayout=stackLayout;horizontal=1;startSize=26;fillColor=none;horizontalStack=0;resizeParent=1;resizeParentMax=0;resizeLast=0;collapsible=1;marginBottom=0;whiteSpace=wrap;html=1;" parent="1" vertex="1">
          <mxGeometry x="-310" y="144" width="140" height="130" as="geometry" />
        </mxCell>
        <mxCell id="9cgPl-4a5b0BjAWY7l4s-76" value="- name: string" style="text;strokeColor=none;fillColor=none;align=left;verticalAlign=top;spacingLeft=4;spacingRight=4;overflow=hidden;rotatable=0;points=[[0,0.5],[1,0.5]];portConstraint=eastwest;whiteSpace=wrap;html=1;" parent="9cgPl-4a5b0BjAWY7l4s-75" vertex="1">
          <mxGeometry y="26" width="140" height="26" as="geometry" />
        </mxCell>
        <mxCell id="9cgPl-4a5b0BjAWY7l4s-77" value="- description: string" style="text;strokeColor=none;fillColor=none;align=left;verticalAlign=top;spacingLeft=4;spacingRight=4;overflow=hidden;rotatable=0;points=[[0,0.5],[1,0.5]];portConstraint=eastwest;whiteSpace=wrap;html=1;" parent="9cgPl-4a5b0BjAWY7l4s-75" vertex="1">
          <mxGeometry y="52" width="140" height="26" as="geometry" />
        </mxCell>
        <mxCell id="9cgPl-4a5b0BjAWY7l4s-78" value="- location_lat: double" style="text;strokeColor=none;fillColor=none;align=left;verticalAlign=top;spacingLeft=4;spacingRight=4;overflow=hidden;rotatable=0;points=[[0,0.5],[1,0.5]];portConstraint=eastwest;whiteSpace=wrap;html=1;" parent="9cgPl-4a5b0BjAWY7l4s-75" vertex="1">
          <mxGeometry y="78" width="140" height="26" as="geometry" />
        </mxCell>
        <mxCell id="9cgPl-4a5b0BjAWY7l4s-79" value="- location_lng: double" style="text;strokeColor=none;fillColor=none;align=left;verticalAlign=top;spacingLeft=4;spacingRight=4;overflow=hidden;rotatable=0;points=[[0,0.5],[1,0.5]];portConstraint=eastwest;whiteSpace=wrap;html=1;" parent="9cgPl-4a5b0BjAWY7l4s-75" vertex="1">
          <mxGeometry y="104" width="140" height="26" as="geometry" />
        </mxCell>
        <mxCell id="9cgPl-4a5b0BjAWY7l4s-81" value="" style="endArrow=diamondThin;endFill=0;endSize=24;html=1;rounded=0;" parent="1" source="9cgPl-4a5b0BjAWY7l4s-66" target="9cgPl-4a5b0BjAWY7l4s-75" edge="1">
          <mxGeometry width="160" relative="1" as="geometry">
            <mxPoint x="-200" y="360" as="sourcePoint" />
            <mxPoint x="-40" y="360" as="targetPoint" />
          </mxGeometry>
        </mxCell>
        <mxCell id="9cgPl-4a5b0BjAWY7l4s-82" value="" style="endArrow=diamondThin;endFill=0;endSize=24;html=1;rounded=0;" parent="1" source="9cgPl-4a5b0BjAWY7l4s-71" target="9cgPl-4a5b0BjAWY7l4s-75" edge="1">
          <mxGeometry width="160" relative="1" as="geometry">
            <mxPoint x="-180" y="340" as="sourcePoint" />
            <mxPoint x="-20" y="340" as="targetPoint" />
          </mxGeometry>
        </mxCell>
        <mxCell id="9cgPl-4a5b0BjAWY7l4s-83" value="" style="endArrow=diamondThin;endFill=0;endSize=24;html=1;rounded=0;" parent="1" source="9cgPl-4a5b0BjAWY7l4s-1" target="9cgPl-4a5b0BjAWY7l4s-71" edge="1">
          <mxGeometry width="160" relative="1" as="geometry">
            <mxPoint x="50" y="320" as="sourcePoint" />
            <mxPoint x="210" y="320" as="targetPoint" />
          </mxGeometry>
        </mxCell>
        <mxCell id="9cgPl-4a5b0BjAWY7l4s-86" value="IMAGE" style="swimlane;fontStyle=0;childLayout=stackLayout;horizontal=1;startSize=26;fillColor=none;horizontalStack=0;resizeParent=1;resizeParentMax=0;resizeLast=0;collapsible=1;marginBottom=0;whiteSpace=wrap;html=1;" parent="1" vertex="1">
          <mxGeometry x="-280" y="604" width="140" height="52" as="geometry" />
        </mxCell>
        <mxCell id="9cgPl-4a5b0BjAWY7l4s-87" value="- url: string" style="text;strokeColor=none;fillColor=none;align=left;verticalAlign=top;spacingLeft=4;spacingRight=4;overflow=hidden;rotatable=0;points=[[0,0.5],[1,0.5]];portConstraint=eastwest;whiteSpace=wrap;html=1;" parent="9cgPl-4a5b0BjAWY7l4s-86" vertex="1">
          <mxGeometry y="26" width="140" height="26" as="geometry" />
        </mxCell>
        <mxCell id="9cgPl-4a5b0BjAWY7l4s-91" value="" style="endArrow=diamondThin;endFill=1;endSize=24;html=1;rounded=0;" parent="1" source="9cgPl-4a5b0BjAWY7l4s-86" target="9cgPl-4a5b0BjAWY7l4s-1" edge="1">
          <mxGeometry width="160" relative="1" as="geometry">
            <mxPoint x="-180" y="660" as="sourcePoint" />
            <mxPoint x="-20" y="660" as="targetPoint" />
          </mxGeometry>
        </mxCell>
        <mxCell id="9cgPl-4a5b0BjAWY7l4s-92" value="* Todos los datos tienen fecha-hora de creaciÃ³n, ediciÃ³n y algunos de borrado" style="text;html=1;align=center;verticalAlign=middle;whiteSpace=wrap;rounded=0;" parent="1" vertex="1">
          <mxGeometry x="540" y="20" width="270" height="30" as="geometry" />
        </mxCell>
        <mxCell id="9cgPl-4a5b0BjAWY7l4s-93" value="Modelo de datos inicial para MAPSA" style="text;align=center;fontStyle=1;verticalAlign=middle;spacingLeft=3;spacingRight=3;strokeColor=none;rotatable=0;points=[[0,0.5],[1,0.5]];portConstraint=eastwest;html=1;" parent="1" vertex="1">
          <mxGeometry x="-110" y="60" width="80" height="26" as="geometry" />
        </mxCell>
        <mxCell id="8ZLUNgzvnfobU_W2b7Mt-1" value="" style="endArrow=diamondThin;endFill=0;endSize=24;html=1;rounded=0;" edge="1" parent="1" source="9cgPl-4a5b0BjAWY7l4s-86" target="9cgPl-4a5b0BjAWY7l4s-13">
          <mxGeometry width="160" relative="1" as="geometry">
            <mxPoint x="-500" y="920" as="sourcePoint" />
            <mxPoint x="-340" y="920" as="targetPoint" />
          </mxGeometry>
        </mxCell>
      </root>
    </mxGraphModel>
  </diagram>
</mxfile>
